<svg xmlns="http://www.w3.org/2000/svg" width="1100" height="620" viewBox="0 0 1100 620" role="img">
<style>text{font-family:Arial,sans-serif;fill:#1f2937;}.title{font-size:22px;font-weight:700;}.axis{font-size:12px;}.small{font-size:11px;}</style>
<rect x="0" y="0" width="1100" height="620" fill="#ffffff"/>
<text class="title" x="90" y="42">Thread Channel One-Way Latency Distribution</text>
<text class="small" x="90" y="62">Histogram with percentile markers (P50/P95/P99)</text>
<line x1="90" y1="500.00" x2="1060" y2="500.00" stroke="#e5e7eb" stroke-width="1"/>
<text class="axis" x="80" y="504.00" text-anchor="end">0</text>
<line x1="90" y1="420.15" x2="1060" y2="420.15" stroke="#e5e7eb" stroke-width="1"/>
<text class="axis" x="80" y="424.15" text-anchor="end">500</text>
<line x1="90" y1="340.30" x2="1060" y2="340.30" stroke="#e5e7eb" stroke-width="1"/>
<text class="axis" x="80" y="344.30" text-anchor="end">1000</text>
<line x1="90" y1="260.46" x2="1060" y2="260.46" stroke="#e5e7eb" stroke-width="1"/>
<text class="axis" x="80" y="264.46" text-anchor="end">1500</text>
<line x1="90" y1="180.61" x2="1060" y2="180.61" stroke="#e5e7eb" stroke-width="1"/>
<text class="axis" x="80" y="184.61" text-anchor="end">2000</text>
<line x1="90" y1="100.76" x2="1060" y2="100.76" stroke="#e5e7eb" stroke-width="1"/>
<text class="axis" x="80" y="104.76" text-anchor="end">2500</text>
<line x1="90" y1="20.91" x2="1060" y2="20.91" stroke="#e5e7eb" stroke-width="1"/>
<text class="axis" x="80" y="24.91" text-anchor="end">3000</text>
<line x1="90" y1="80" x2="90" y2="500" stroke="#374151" stroke-width="1.5"/>
<line x1="90" y1="500" x2="1060" y2="500" stroke="#374151" stroke-width="1.5"/>
<rect x="90.00" y="498.56" width="23.65" height="1.44" fill="#0ea5e9" opacity="0.75"/>
<rect x="114.25" y="499.04" width="23.65" height="0.96" fill="#0ea5e9" opacity="0.75"/>
<rect x="138.50" y="478.92" width="23.65" height="21.08" fill="#0ea5e9" opacity="0.75"/>
<rect x="162.75" y="80.00" width="23.65" height="420.00" fill="#0ea5e9" opacity="0.75"/>
<rect x="187.00" y="300.38" width="23.65" height="199.62" fill="#0ea5e9" opacity="0.75"/>
<rect x="211.25" y="437.40" width="23.65" height="62.60" fill="#0ea5e9" opacity="0.75"/>
<rect x="235.50" y="448.10" width="23.65" height="51.90" fill="#0ea5e9" opacity="0.75"/>
<rect x="259.75" y="476.21" width="23.65" height="23.79" fill="#0ea5e9" opacity="0.75"/>
<rect x="284.00" y="491.22" width="23.65" height="8.78" fill="#0ea5e9" opacity="0.75"/>
<rect x="308.25" y="497.60" width="23.65" height="2.40" fill="#0ea5e9" opacity="0.75"/>
<rect x="332.50" y="498.72" width="23.65" height="1.28" fill="#0ea5e9" opacity="0.75"/>
<rect x="356.75" y="498.88" width="23.65" height="1.12" fill="#0ea5e9" opacity="0.75"/>
<rect x="381.00" y="499.68" width="23.65" height="0.32" fill="#0ea5e9" opacity="0.75"/>
<rect x="405.25" y="499.68" width="23.65" height="0.32" fill="#0ea5e9" opacity="0.75"/>
<rect x="429.50" y="499.84" width="23.65" height="0.16" fill="#0ea5e9" opacity="0.75"/>
<rect x="453.75" y="499.36" width="23.65" height="0.64" fill="#0ea5e9" opacity="0.75"/>
<rect x="478.00" y="500.00" width="23.65" height="0.00" fill="#0ea5e9" opacity="0.75"/>
<rect x="502.25" y="500.00" width="23.65" height="0.00" fill="#0ea5e9" opacity="0.75"/>
<rect x="526.50" y="499.68" width="23.65" height="0.32" fill="#0ea5e9" opacity="0.75"/>
<rect x="550.75" y="499.68" width="23.65" height="0.32" fill="#0ea5e9" opacity="0.75"/>
<rect x="575.00" y="500.00" width="23.65" height="0.00" fill="#0ea5e9" opacity="0.75"/>
<rect x="599.25" y="500.00" width="23.65" height="0.00" fill="#0ea5e9" opacity="0.75"/>
<rect x="623.50" y="500.00" width="23.65" height="0.00" fill="#0ea5e9" opacity="0.75"/>
<rect x="647.75" y="500.00" width="23.65" height="0.00" fill="#0ea5e9" opacity="0.75"/>
<rect x="672.00" y="499.84" width="23.65" height="0.16" fill="#0ea5e9" opacity="0.75"/>
<rect x="696.25" y="500.00" width="23.65" height="0.00" fill="#0ea5e9" opacity="0.75"/>
<rect x="720.50" y="500.00" width="23.65" height="0.00" fill="#0ea5e9" opacity="0.75"/>
<rect x="744.75" y="500.00" width="23.65" height="0.00" fill="#0ea5e9" opacity="0.75"/>
<rect x="769.00" y="500.00" width="23.65" height="0.00" fill="#0ea5e9" opacity="0.75"/>
<rect x="793.25" y="499.84" width="23.65" height="0.16" fill="#0ea5e9" opacity="0.75"/>
<rect x="817.50" y="500.00" width="23.65" height="0.00" fill="#0ea5e9" opacity="0.75"/>
<rect x="841.75" y="499.84" width="23.65" height="0.16" fill="#0ea5e9" opacity="0.75"/>
<rect x="866.00" y="500.00" width="23.65" height="0.00" fill="#0ea5e9" opacity="0.75"/>
<rect x="890.25" y="499.84" width="23.65" height="0.16" fill="#0ea5e9" opacity="0.75"/>
<rect x="914.50" y="499.84" width="23.65" height="0.16" fill="#0ea5e9" opacity="0.75"/>
<rect x="938.75" y="499.84" width="23.65" height="0.16" fill="#0ea5e9" opacity="0.75"/>
<rect x="963.00" y="500.00" width="23.65" height="0.00" fill="#0ea5e9" opacity="0.75"/>
<rect x="987.25" y="500.00" width="23.65" height="0.00" fill="#0ea5e9" opacity="0.75"/>
<rect x="1011.50" y="499.68" width="23.65" height="0.32" fill="#0ea5e9" opacity="0.75"/>
<rect x="1035.75" y="499.84" width="23.65" height="0.16" fill="#0ea5e9" opacity="0.75"/>
<line x1="87.20" y1="500" x2="87.20" y2="506" stroke="#374151"/>
<text class="axis" x="87.20" y="522" text-anchor="middle">0.0</text>
<line x1="252.28" y1="500" x2="252.28" y2="506" stroke="#374151"/>
<text class="axis" x="252.28" y="522" text-anchor="middle">50.0</text>
<line x1="417.35" y1="500" x2="417.35" y2="506" stroke="#374151"/>
<text class="axis" x="417.35" y="522" text-anchor="middle">100.0</text>
<line x1="582.43" y1="500" x2="582.43" y2="506" stroke="#374151"/>
<text class="axis" x="582.43" y="522" text-anchor="middle">150.0</text>
<line x1="747.50" y1="500" x2="747.50" y2="506" stroke="#374151"/>
<text class="axis" x="747.50" y="522" text-anchor="middle">200.0</text>
<line x1="912.58" y1="500" x2="912.58" y2="506" stroke="#374151"/>
<text class="axis" x="912.58" y="522" text-anchor="middle">250.0</text>
<line x1="184.16" y1="80" x2="184.16" y2="500" stroke="#16a34a" stroke-width="2"/>
<text class="axis" x="188.16" y="94.00" text-anchor="start" fill="#16a34a">P50 29.37 us</text>
<line x1="260.04" y1="80" x2="260.04" y2="500" stroke="#f59e0b" stroke-width="2"/>
<text class="axis" x="264.04" y="94.00" text-anchor="start" fill="#f59e0b">P95 52.35 us</text>
<line x1="311.56" y1="80" x2="311.56" y2="500" stroke="#dc2626" stroke-width="2"/>
<text class="axis" x="315.56" y="94.00" text-anchor="start" fill="#dc2626">P99 67.96 us</text>
<text class="axis" x="575.00" y="590" text-anchor="middle">Latency (microseconds, one-way)</text>
<text class="axis" x="26" y="290.00" transform="rotate(-90 26 290.00)">Count</text>
</svg>
