<svg xmlns="http://www.w3.org/2000/svg" width="1100" height="620" viewBox="0 0 1100 620" role="img">
<style>text{font-family:Arial,sans-serif;fill:#1f2937;}.title{font-size:22px;font-weight:700;}.axis{font-size:12px;}.small{font-size:11px;}</style>
<rect x="0" y="0" width="1100" height="620" fill="#ffffff"/>
<text class="title" x="90" y="42">Frame Time Distribution</text>
<text class="small" x="90" y="62">Histogram with percentile markers (P50/P95/P99)</text>
<line x1="90" y1="500.00" x2="1060" y2="500.00" stroke="#e5e7eb" stroke-width="1"/>
<text class="axis" x="80" y="504.00" text-anchor="end">0</text>
<line x1="90" y1="429.05" x2="1060" y2="429.05" stroke="#e5e7eb" stroke-width="1"/>
<text class="axis" x="80" y="433.05" text-anchor="end">100</text>
<line x1="90" y1="358.11" x2="1060" y2="358.11" stroke="#e5e7eb" stroke-width="1"/>
<text class="axis" x="80" y="362.11" text-anchor="end">200</text>
<line x1="90" y1="287.16" x2="1060" y2="287.16" stroke="#e5e7eb" stroke-width="1"/>
<text class="axis" x="80" y="291.16" text-anchor="end">300</text>
<line x1="90" y1="216.22" x2="1060" y2="216.22" stroke="#e5e7eb" stroke-width="1"/>
<text class="axis" x="80" y="220.22" text-anchor="end">400</text>
<line x1="90" y1="145.27" x2="1060" y2="145.27" stroke="#e5e7eb" stroke-width="1"/>
<text class="axis" x="80" y="149.27" text-anchor="end">500</text>
<line x1="90" y1="74.32" x2="1060" y2="74.32" stroke="#e5e7eb" stroke-width="1"/>
<text class="axis" x="80" y="78.32" text-anchor="end">600</text>
<line x1="90" y1="80" x2="90" y2="500" stroke="#374151" stroke-width="1.5"/>
<line x1="90" y1="500" x2="1060" y2="500" stroke="#374151" stroke-width="1.5"/>
<rect x="90.00" y="468.07" width="23.65" height="31.93" fill="#7c3aed" opacity="0.75"/>
<rect x="114.25" y="368.04" width="23.65" height="131.96" fill="#7c3aed" opacity="0.75"/>
<rect x="138.50" y="272.97" width="23.65" height="227.03" fill="#7c3aed" opacity="0.75"/>
<rect x="162.75" y="148.82" width="23.65" height="351.18" fill="#7c3aed" opacity="0.75"/>
<rect x="187.00" y="80.00" width="23.65" height="420.00" fill="#7c3aed" opacity="0.75"/>
<rect x="211.25" y="89.22" width="23.65" height="410.78" fill="#7c3aed" opacity="0.75"/>
<rect x="235.50" y="138.18" width="23.65" height="361.82" fill="#7c3aed" opacity="0.75"/>
<rect x="259.75" y="203.45" width="23.65" height="296.55" fill="#7c3aed" opacity="0.75"/>
<rect x="284.00" y="269.43" width="23.65" height="230.57" fill="#7c3aed" opacity="0.75"/>
<rect x="308.25" y="307.03" width="23.65" height="192.97" fill="#7c3aed" opacity="0.75"/>
<rect x="332.50" y="307.03" width="23.65" height="192.97" fill="#7c3aed" opacity="0.75"/>
<rect x="356.75" y="333.28" width="23.65" height="166.72" fill="#7c3aed" opacity="0.75"/>
<rect x="381.00" y="369.46" width="23.65" height="130.54" fill="#7c3aed" opacity="0.75"/>
<rect x="405.25" y="374.43" width="23.65" height="125.57" fill="#7c3aed" opacity="0.75"/>
<rect x="429.50" y="414.86" width="23.65" height="85.14" fill="#7c3aed" opacity="0.75"/>
<rect x="453.75" y="448.92" width="23.65" height="51.08" fill="#7c3aed" opacity="0.75"/>
<rect x="478.00" y="460.98" width="23.65" height="39.02" fill="#7c3aed" opacity="0.75"/>
<rect x="502.25" y="466.66" width="23.65" height="33.34" fill="#7c3aed" opacity="0.75"/>
<rect x="526.50" y="475.88" width="23.65" height="24.12" fill="#7c3aed" opacity="0.75"/>
<rect x="550.75" y="483.68" width="23.65" height="16.32" fill="#7c3aed" opacity="0.75"/>
<rect x="575.00" y="490.07" width="23.65" height="9.93" fill="#7c3aed" opacity="0.75"/>
<rect x="599.25" y="494.32" width="23.65" height="5.68" fill="#7c3aed" opacity="0.75"/>
<rect x="623.50" y="497.16" width="23.65" height="2.84" fill="#7c3aed" opacity="0.75"/>
<rect x="647.75" y="497.16" width="23.65" height="2.84" fill="#7c3aed" opacity="0.75"/>
<rect x="672.00" y="499.29" width="23.65" height="0.71" fill="#7c3aed" opacity="0.75"/>
<rect x="696.25" y="497.87" width="23.65" height="2.13" fill="#7c3aed" opacity="0.75"/>
<rect x="720.50" y="497.87" width="23.65" height="2.13" fill="#7c3aed" opacity="0.75"/>
<rect x="744.75" y="500.00" width="23.65" height="0.00" fill="#7c3aed" opacity="0.75"/>
<rect x="769.00" y="500.00" width="23.65" height="0.00" fill="#7c3aed" opacity="0.75"/>
<rect x="793.25" y="499.29" width="23.65" height="0.71" fill="#7c3aed" opacity="0.75"/>
<rect x="817.50" y="500.00" width="23.65" height="0.00" fill="#7c3aed" opacity="0.75"/>
<rect x="841.75" y="500.00" width="23.65" height="0.00" fill="#7c3aed" opacity="0.75"/>
<rect x="866.00" y="500.00" width="23.65" height="0.00" fill="#7c3aed" opacity="0.75"/>
<rect x="890.25" y="500.00" width="23.65" height="0.00" fill="#7c3aed" opacity="0.75"/>
<rect x="914.50" y="500.00" width="23.65" height="0.00" fill="#7c3aed" opacity="0.75"/>
<rect x="938.75" y="500.00" width="23.65" height="0.00" fill="#7c3aed" opacity="0.75"/>
<rect x="963.00" y="500.00" width="23.65" height="0.00" fill="#7c3aed" opacity="0.75"/>
<rect x="987.25" y="500.00" width="23.65" height="0.00" fill="#7c3aed" opacity="0.75"/>
<rect x="1011.50" y="500.00" width="23.65" height="0.00" fill="#7c3aed" opacity="0.75"/>
<rect x="1035.75" y="499.29" width="23.65" height="0.71" fill="#7c3aed" opacity="0.75"/>
<line x1="11.28" y1="500" x2="11.28" y2="506" stroke="#374151"/>
<text class="axis" x="11.28" y="522" text-anchor="middle">6000.0</text>
<line x1="186.56" y1="500" x2="186.56" y2="506" stroke="#374151"/>
<text class="axis" x="186.56" y="522" text-anchor="middle">8000.0</text>
<line x1="361.84" y1="500" x2="361.84" y2="506" stroke="#374151"/>
<text class="axis" x="361.84" y="522" text-anchor="middle">10000.0</text>
<line x1="537.11" y1="500" x2="537.11" y2="506" stroke="#374151"/>
<text class="axis" x="537.11" y="522" text-anchor="middle">12000.0</text>
<line x1="712.39" y1="500" x2="712.39" y2="506" stroke="#374151"/>
<text class="axis" x="712.39" y="522" text-anchor="middle">14000.0</text>
<line x1="887.66" y1="500" x2="887.66" y2="506" stroke="#374151"/>
<text class="axis" x="887.66" y="522" text-anchor="middle">16000.0</text>
<line x1="248.58" y1="80" x2="248.58" y2="500" stroke="#16a34a" stroke-width="2"/>
<text class="axis" x="252.58" y="94.00" text-anchor="start" fill="#16a34a">P50 8707.75 us</text>
<line x1="458.82" y1="80" x2="458.82" y2="500" stroke="#f59e0b" stroke-width="2"/>
<text class="axis" x="462.82" y="94.00" text-anchor="start" fill="#f59e0b">P95 11106.60 us</text>
<line x1="564.46" y1="80" x2="564.46" y2="500" stroke="#dc2626" stroke-width="2"/>
<text class="axis" x="568.46" y="94.00" text-anchor="start" fill="#dc2626">P99 12312.12 us</text>
<text class="axis" x="575.00" y="590" text-anchor="middle">Frame time (microseconds)</text>
<text class="axis" x="26" y="290.00" transform="rotate(-90 26 290.00)">Count</text>
</svg>
