<svg xmlns="http://www.w3.org/2000/svg" width="1450" height="760" viewBox="0 0 1450 760" role="img">
<style>
text{font-family:'AR PL UMing TW MBE','AR PL UMing CN','FandolHei','Microsoft YaHei','SimHei',Arial,Helvetica,sans-serif;fill:#111827;}
.title{font-size:28px;font-weight:700;}
.subtitle{font-size:15px;fill:#475569;}
.axis{font-size:15px;fill:#374151;}
.small{font-size:14px;fill:#475569;}
.tiny{font-size:13px;fill:#64748b;}
.label{font-size:16px;font-weight:700;}
.code{font-family:Consolas,Monaco,'Courier New',monospace;font-size:10px;fill:#e2e8f0;}
.box{stroke:#1f2937;stroke-width:1.4;rx:14;ry:14;}
</style>
<defs>
<marker id="arrow" markerWidth="10" markerHeight="10" refX="8" refY="3" orient="auto" markerUnits="strokeWidth">
<path d="M0,0 L0,6 L9,3 z" fill="#334155" />
</marker>
</defs>
<rect x="0" y="0" width="1450" height="760" fill="#ffffff"/>
<text class="title" x="70.00" y="44.00" text-anchor="start">多 GPU 几何扩展性（Multi-GPU scaling）</text>
<text class="subtitle" x="70.00" y="66.00" text-anchor="start">弱扩展实验：每张 GPU 保持固定工作量，查询被分配到 CUDA 0 到 7 号设备。</text>
<line x1="120" y1="640.00" x2="1070" y2="640.00" stroke="#e5e7eb"/>
<text class="axis" x="108.00" y="644.00" text-anchor="end">0.00</text>
<line x1="120" y1="525.59" x2="1070" y2="525.59" stroke="#e5e7eb"/>
<text class="axis" x="108.00" y="529.59" text-anchor="end">2.0</text>
<line x1="120" y1="411.19" x2="1070" y2="411.19" stroke="#e5e7eb"/>
<text class="axis" x="108.00" y="415.19" text-anchor="end">4.0</text>
<line x1="120" y1="296.78" x2="1070" y2="296.78" stroke="#e5e7eb"/>
<text class="axis" x="108.00" y="300.78" text-anchor="end">6.0</text>
<line x1="120" y1="182.37" x2="1070" y2="182.37" stroke="#e5e7eb"/>
<text class="axis" x="108.00" y="186.37" text-anchor="end">8.0</text>
<line x1="120" y1="100" x2="120" y2="640" stroke="#111827" stroke-width="1.4"/>
<line x1="120" y1="640" x2="1070" y2="640" stroke="#111827" stroke-width="1.4"/>
<line x1="120" y1="582.80" x2="1070" y2="582.80" stroke="#0f172a" stroke-width="1.5" stroke-dasharray="7 5"/>
<text class="tiny" x="1078.00" y="586.80" text-anchor="start">参考线 1.0</text>
<polyline points="120.00,582.80 436.67,525.59 753.33,411.19 1070.00,182.37" fill="none" stroke="#64748b" stroke-width="3"/>
<circle cx="120.00" cy="582.80" r="4.5" fill="#64748b"/>
<circle cx="436.67" cy="525.59" r="4.5" fill="#64748b"/>
<circle cx="753.33" cy="411.19" r="4.5" fill="#64748b"/>
<circle cx="1070.00" cy="182.37" r="4.5" fill="#64748b"/>
<polyline points="120.00,582.80 436.67,585.34 753.33,584.49 1070.00,575.81" fill="none" stroke="#2563eb" stroke-width="3"/>
<circle cx="120.00" cy="582.80" r="4.5" fill="#2563eb"/>
<circle cx="436.67" cy="585.34" r="4.5" fill="#2563eb"/>
<circle cx="753.33" cy="584.49" r="4.5" fill="#2563eb"/>
<circle cx="1070.00" cy="575.81" r="4.5" fill="#2563eb"/>
<polyline points="120.00,582.80 436.67,525.49 753.33,411.88 1070.00,426.16" fill="none" stroke="#16a34a" stroke-width="3"/>
<circle cx="120.00" cy="582.80" r="4.5" fill="#16a34a"/>
<circle cx="436.67" cy="525.49" r="4.5" fill="#16a34a"/>
<circle cx="753.33" cy="411.88" r="4.5" fill="#16a34a"/>
<circle cx="1070.00" cy="426.16" r="4.5" fill="#16a34a"/>
<polyline points="120.00,582.80 436.67,526.55 753.33,413.01 1070.00,188.15" fill="none" stroke="#f59e0b" stroke-width="3"/>
<circle cx="120.00" cy="582.80" r="4.5" fill="#f59e0b"/>
<circle cx="436.67" cy="526.55" r="4.5" fill="#f59e0b"/>
<circle cx="753.33" cy="413.01" r="4.5" fill="#f59e0b"/>
<circle cx="1070.00" cy="188.15" r="4.5" fill="#f59e0b"/>
<line x1="120.00" y1="640" x2="120.00" y2="646" stroke="#111827"/>
<text class="axis" x="120.00" y="665.00" text-anchor="middle">1</text>
<line x1="436.67" y1="640" x2="436.67" y2="646" stroke="#111827"/>
<text class="axis" x="436.67" y="665.00" text-anchor="middle">2</text>
<line x1="753.33" y1="640" x2="753.33" y2="646" stroke="#111827"/>
<text class="axis" x="753.33" y="665.00" text-anchor="middle">4</text>
<line x1="1070.00" y1="640" x2="1070.00" y2="646" stroke="#111827"/>
<text class="axis" x="1070.00" y="665.00" text-anchor="middle">8</text>
<text class="axis" x="595.00" y="726.00" text-anchor="middle">GPU 数量（devices）</text>
<text class="axis" x="120.00" y="84.00" text-anchor="start">相对 1 GPU 的加速比（x）</text>
<line x1="1104" y1="112" x2="1140" y2="112" stroke="#64748b" stroke-width="4"/>
<circle cx="1122" cy="112" r="5.5" fill="#64748b"/>
<text class="tiny" x="1154.00" y="117.00" text-anchor="start">理想线性扩展（ideal）</text>
<line x1="1104" y1="142" x2="1140" y2="142" stroke="#2563eb" stroke-width="4"/>
<circle cx="1122" cy="142" r="5.5" fill="#2563eb"/>
<text class="tiny" x="1154.00" y="147.00" text-anchor="start">距离矩阵（distance matrix）</text>
<line x1="1104" y1="172" x2="1140" y2="172" stroke="#16a34a" stroke-width="4"/>
<circle cx="1122" cy="172" r="5.5" fill="#16a34a"/>
<text class="tiny" x="1154.00" y="177.00" text-anchor="start">最近点（nearest point）</text>
<line x1="1104" y1="202" x2="1140" y2="202" stroke="#f59e0b" stroke-width="4"/>
<circle cx="1122" cy="202" r="5.5" fill="#f59e0b"/>
<text class="tiny" x="1154.00" y="207.00" text-anchor="start">圆形范围计数（circle range count）</text>
</svg>
